<svg width="1045" height="680" fill="none" xmlns="http://www.w3.org/2000/svg"><path d="M1089.31 324.457c50.65 50.698 132.76 50.698 183.4 0 50.65-50.697 50.65-132.895 0-183.592-50.64-50.698-132.75-50.698-183.4 0-50.64 50.697-50.64 132.894 0 183.592Z" stroke="#656c7e60" stroke-width="2" stroke-miterlimit="10"/><path d="M1004.14 373.524c50.65 50.697 132.76 50.697 183.4 0 50.65-50.698 50.65-132.895 0-183.593-50.64-50.698-132.75-50.698-183.4 0-50.643 50.698-50.643 132.895 0 183.593Z" stroke="#656c7e60" stroke-width="2" stroke-miterlimit="10"/><path d="M1004.14 275.395c50.65 50.697 132.76 50.697 183.4 0 50.65-50.698 50.65-132.895 0-183.593-50.64-50.698-132.75-50.698-183.4 0-50.643 50.698-50.643 132.895 0 183.593ZM1089.31 682.234c50.65 50.698 132.76 50.698 183.4.001 50.65-50.698 50.65-132.895 0-183.593-50.64-50.698-132.75-50.698-183.4 0-50.64 50.698-50.64 132.895 0 183.592Z" stroke="#656c7e60" stroke-width="2" stroke-miterlimit="10"/><path d="M1004.14 731.301c50.64 50.698 132.76 50.698 183.4 0 50.65-50.698 50.65-132.895 0-183.593-50.64-50.697-132.76-50.697-183.4 0-50.647 50.698-50.647 132.895 0 183.593Z" stroke="#656c7e60" stroke-width="2" stroke-miterlimit="10"/><path d="M1004.14 633.172c50.65 50.698 132.76 50.698 183.4 0 50.65-50.698 50.65-132.895 0-183.593-50.64-50.697-132.75-50.697-183.4.001-50.643 50.697-50.643 132.894 0 183.592ZM116.924 590.45c0 71.698 58.063 129.82 129.687 129.821 71.623 0 129.686-58.123 129.686-129.821 0-71.698-58.063-129.821-129.686-129.821-71.624 0-129.687 58.123-129.687 129.821Z" stroke="#656c7e60" stroke-width="2" stroke-miterlimit="10"/><path d="M31.752 639.512c0 71.698 58.063 129.821 129.687 129.821 71.623 0 129.686-58.123 129.686-129.821 0-71.698-58.063-129.821-129.686-129.821-71.624 0-129.687 58.123-129.687 129.821Z" stroke="#656c7e60" stroke-width="2" stroke-miterlimit="10"/><path d="M31.752 541.385c0 71.698 58.063 129.821 129.687 129.821 71.623 0 129.686-58.123 129.686-129.821 0-71.698-58.063-129.821-129.686-129.821-71.624 0-129.687 58.123-129.687 129.821ZM310.139 769.333c0 71.698 58.063 129.82 129.686 129.82 71.624 0 129.687-58.122 129.687-129.82 0-71.699-58.063-129.821-129.687-129.821-71.623 0-129.686 58.122-129.686 129.821Z" stroke="#656c7e60" stroke-width="2" stroke-miterlimit="10"/><path d="M395.311 720.27c0 71.698 58.062 129.821 129.686 129.821 71.624 0 129.687-58.123 129.687-129.821 0-71.698-58.063-129.821-129.687-129.821-71.624 0-129.686 58.123-129.686 129.821Z" stroke="#656c7e60" stroke-width="2" stroke-miterlimit="10"/><path d="M621.604 590.448c0 71.698 58.062 129.821 129.686 129.821 71.624 0 129.687-58.123 129.687-129.821 0-71.698-58.063-129.821-129.687-129.821-71.624 0-129.686 58.123-129.686 129.821Z" stroke="#656c7e60" stroke-width="2" stroke-miterlimit="10"/><path d="M744.768 633.166c50.645 50.698 132.757 50.698 183.402 0 50.645-50.698 50.645-132.895 0-183.592-50.645-50.698-132.757-50.698-183.402 0-50.646 50.697-50.646 132.894 0 183.592Z" stroke="#656c7e60" stroke-width="2" stroke-miterlimit="10"/><path d="M744.764 731.293c50.645 50.698 132.757 50.698 183.402 0 50.645-50.698 50.645-132.895 0-183.592-50.645-50.698-132.757-50.698-183.402 0-50.646 50.697-50.646 132.894 0 183.592ZM621.604 232.666c0 71.699 58.062 129.821 129.686 129.821 71.624 0 129.687-58.122 129.687-129.821 0-71.698-58.063-129.82-129.687-129.82-71.624 0-129.686 58.122-129.686 129.82Z" stroke="#656c7e60" stroke-width="2" stroke-miterlimit="10"/><path d="M744.768 275.389c50.645 50.697 132.757 50.697 183.402 0 50.645-50.698 50.645-132.895 0-183.593-50.645-50.697-132.757-50.697-183.402 0-50.646 50.698-50.646 132.895 0 183.593Z" stroke="#656c7e60" stroke-width="2" stroke-miterlimit="10"/><path d="M744.768 373.516c50.645 50.697 132.757 50.697 183.402 0 50.645-50.698 50.645-132.895 0-183.593-50.645-50.697-132.757-50.697-183.402 0-50.646 50.698-50.646 132.895 0 183.593ZM428.389 411.561c0 71.698 58.063 129.821 129.686 129.821 71.624 0 129.687-58.123 129.687-129.821 0-71.698-58.063-129.821-129.687-129.821-71.623 0-129.686 58.123-129.686 129.821Z" stroke="#656c7e60" stroke-width="2" stroke-miterlimit="10"/><path d="M343.217 460.627c0 71.698 58.063 129.821 129.687 129.821 71.623 0 129.686-58.123 129.686-129.821 0-71.698-58.063-129.82-129.686-129.82-71.624 0-129.687 58.122-129.687 129.82Z" stroke="#656c7e60" stroke-width="2" stroke-miterlimit="10"/><path d="M343.217 362.487c0 71.698 58.063 129.821 129.687 129.821 71.623 0 129.686-58.123 129.686-129.821 0-71.698-58.063-129.821-129.686-129.821-71.624 0-129.687 58.123-129.687 129.821Z" stroke="#656c7e60" stroke-width="2" stroke-miterlimit="10"/></svg>