<svg aria-hidden="true" style="width:0;height:0;position:absolute;overflow:hidden" xmlns="http://www.w3.org/2000/svg"><defs><symbol id="arrow-down" viewBox="0 0 32 32"><path fill="#fff" style="fill:var(--color1,#fff)" d="M16 32C7.163 32 0 24.837 0 16S7.163 0 16 0s16 7.163 16 16-7.163 16-16 16z"/><path fill="none" stroke="#363a45" style="stroke:var(--color2,#363a45)" stroke-width="1.2" d="m16 19.2 4-3.586M16 19.2l-4-3.586m4 3.586v-8"/></symbol><symbol id="location" viewBox="0 0 28 32"><path fill="#d7ae9c" style="fill:var(--color3,#d7ae9c)" d="m20.183 17.277-6.332 6.332-6.332-6.332a8.925 8.925 0 0 1-2.623-6.332c0-4.946 4.009-8.955 8.955-8.955s8.955 4.009 8.955 8.955a8.924 8.924 0 0 1-2.623 6.332z"/><path fill="none" stroke="#3b3633" style="stroke:var(--color4,#3b3633)" stroke-width=".478" d="M13.849 15.164a4.22 4.22 0 0 0 0-8.438 4.22 4.22 0 0 0 0 8.438zm0-2.467a1.751 1.751 0 0 1 0-3.502 1.751 1.751 0 0 1 0 3.502z"/></symbol><symbol id="logo" viewBox="0 0 98 32"><path d="M20.377.615a15.585 15.585 0 0 0-4.389-.617c-2.854 0-5.533.751-7.85 2.066l.079-.041C4.544 4.077 1.814 7.449.645 11.483l-.028.112a15.47 15.47 0 0 0-.618 4.378c0 2.848.753 5.519 2.07 7.827l-.041-.078a15.88 15.88 0 0 0 9.598 7.582c1.456.414 2.926.611 4.37.611 6.966 0 13.395-4.583 15.392-11.589 2.41-8.461-2.528-17.305-11.011-19.71zm8.416 18.976c-2.006 7.035-9.378 11.131-16.432 9.13-3.452-.989-6.262-3.252-7.945-6.236l-.034-.066a12.98 12.98 0 0 1-1.688-6.442c0-1.299.189-2.554.54-3.739l-.024.093c.995-3.448 3.264-6.251 6.252-7.925l.067-.034c1.862-1.059 4.091-1.683 6.466-1.683 1.299 0 2.555.187 3.742.535l-.094-.024c7.054 2.002 11.157 9.355 9.151 16.391zM83.121.135h-2.99l1.84 3.817-13.506 28.034.027.012h2.956L83.464 7.054 95.48 31.998h2.956l.025-.012L83.121.135zM52.162 18.592 43.22.138h-2.989l10.435 21.556-4.96 10.293.027.012h2.956L64.038.134h-2.989l-8.888 18.457z"/></symbol><symbol id="menu" viewBox="0 0 32 32"><path d="M32 4H0v4h32V4zm-5.333 18.667H0v4h26.667v-4zM12 13.333H0v4h12v-4z"/></symbol><symbol id="menu-circles" viewBox="0 0 33 32"><path fill="none" stroke="#fff" style="stroke:var(--color1,#fff)" stroke-miterlimit="10" stroke-width=".828" d="M16.551 23.592c6.363 0 11.521-5.158 11.521-11.52S22.913.552 16.551.552C10.188.552 5.03 5.71 5.03 12.072s5.159 11.52 11.521 11.52z"/><path fill="none" stroke="#fff" style="stroke:var(--color1,#fff)" stroke-miterlimit="10" stroke-width=".828" d="M20.907 31.158c6.362 0 11.521-5.158 11.521-11.52S27.27 8.118 20.907 8.118 9.386 13.276 9.386 19.638s5.158 11.52 11.521 11.52z"/><path fill="none" stroke="#fff" style="stroke:var(--color1,#fff)" stroke-miterlimit="10" stroke-width=".828" d="M12.196 31.158c6.362 0 11.521-5.158 11.521-11.52s-5.158-11.52-11.521-11.52S.675 13.276.675 19.638s5.158 11.52 11.521 11.52z"/></symbol><symbol id="menu-close" viewBox="0 0 32 32"><path stroke-linecap="round" stroke-width="5.333" d="M28.444 3.556 3.555 28.445m.001-24.889 24.889 24.889"/></symbol><symbol id="mountaine1" viewBox="0 0 131 32"><path d="M27.773 15.192.045 0v31.962h135.238V15.856l-7.721-4.234-12.037-3.819-9.962-.664-11.291 7.057-3.072 1.66-8.385-4.732-16.77-8.634-7.472 3.819-16.272 4.815-14.528 4.068z"/></symbol><symbol id="mountaine2" viewBox="0 0 148 32"><path d="M31.762 2.783 0 16.261v15.74h151.835V.051L131.383 12.68l-15.928 9.613L92.93 11.926l-1.225.283-1.602 1.319-14.232 12.818-1.131-.754-8.765-5.372L36.287 1.936h-1.602l-2.922.848z"/></symbol><symbol id="paper" viewBox="0 0 32 32"><path fill="#fff" style="fill:var(--color1,#fff)" d="M28 10.667v17.324a1.335 1.335 0 0 1-1.325 1.343H5.323a1.325 1.325 0 0 1-1.324-1.322V3.991a1.34 1.34 0 0 1 1.336-1.323h14.66l8.004 8zM25.333 12h-6.667V5.333h-12v21.333h18.667V11.999z"/></symbol><symbol id="play" viewBox="0 0 32 32"><path fill="#d7ae9c" style="fill:var(--color3,#d7ae9c)" d="M16 29.333C8.636 29.333 2.667 23.364 2.667 16S8.636 2.667 16 2.667 29.333 8.636 29.333 16 23.364 29.333 16 29.333zm0-2.666a10.664 10.664 0 0 0 7.543-18.209 10.669 10.669 0 0 0-15.085 0A10.666 10.666 0 0 0 16 26.667zM14.163 11.22l6.505 4.336a.526.526 0 0 1 .175.696.52.52 0 0 1-.175.192l-6.507 4.336a.528.528 0 0 1-.546.025.527.527 0 0 1-.281-.468v-8.675a.541.541 0 0 1 .282-.47.534.534 0 0 1 .547.027z"/></symbol><symbol id="play-big" viewBox="0 0 32 32"><path fill="#fff" style="fill:var(--color1,#fff)" opacity=".6" d="M32 16c0 8.837-7.163 16-16 16S0 24.837 0 16 7.163 0 16 0s16 7.163 16 16z"/><path fill="#363a45" style="fill:var(--color2,#363a45)" d="m20.8 16-7.2 4.157v-8.314L20.8 16z"/></symbol><symbol id="soc-discord" viewBox="0 0 40 32"><path fill="#fff" style="fill:var(--color1,#fff)" d="M26.166 27.889c-.534.142-1.071.268-1.612.377a21.621 21.621 0 0 1-8.87-.036 32.907 32.907 0 0 1-2.174-.573L10.444 32C2.876 31.735 0 26.21 0 26.21 0 13.943 4.931 3.999 4.931 3.999 9.862-.112 14.553.001 14.553.001l1.342 1.905c.124-.019.248-.031.373-.036a26.106 26.106 0 0 1 7.704.036L25.444.001s4.695-.112 9.622 4.002c0 0 4.934 9.941 4.934 22.208 0 0-2.913 5.522-10.481 5.79l-3.353-4.111zM13.388 14.901c-2.001 0-3.582 1.633-3.582 3.628s1.615 3.628 3.582 3.628c1.998 0 3.579-1.633 3.579-3.628a3.573 3.573 0 0 0-3.579-3.628zm12.811 0c-1.998 0-3.579 1.633-3.579 3.628s1.615 3.628 3.579 3.628c2.001 0 3.583-1.633 3.583-3.628s-1.582-3.628-3.583-3.628z"/></symbol><symbol id="soc-instagram" viewBox="0 0 32 32"><path fill="#fff" style="fill:var(--color1,#fff)" d="M16.004 1.331c3.985 0 4.482.015 6.046.088 1.562.073 2.625.318 3.561.682a7.161 7.161 0 0 1 2.599 1.691 7.19 7.19 0 0 1 1.691 2.599c.362.934.609 1.999.682 3.561.069 1.563.088 2.061.088 6.046s-.015 4.482-.088 6.046c-.073 1.562-.32 2.625-.682 3.561a7.164 7.164 0 0 1-1.691 2.599 7.19 7.19 0 0 1-2.599 1.691c-.934.362-1.999.609-3.561.682-1.564.069-2.061.088-6.046.088s-4.482-.015-6.046-.088c-1.562-.073-2.625-.32-3.561-.682a7.177 7.177 0 0 1-2.599-1.691 7.19 7.19 0 0 1-1.691-2.599c-.364-.934-.609-1.999-.682-3.561-.069-1.564-.088-2.061-.088-6.046s.015-4.482.088-6.046c.073-1.563.318-2.625.682-3.561a7.156 7.156 0 0 1 1.691-2.599 7.19 7.19 0 0 1 2.599-1.691c.936-.364 1.998-.609 3.561-.682 1.563-.069 2.061-.088 6.046-.088zm0 7.334a7.333 7.333 0 1 0 0 14.666 7.333 7.333 0 0 0 0-14.666zm9.533-.367a1.83 1.83 0 0 0-1.833-1.833 1.832 1.832 0 1 0 1.833 1.833zm-9.533 3.3a4.4 4.4 0 1 1-.001 8.8 4.4 4.4 0 0 1 .001-8.8z"/></symbol><symbol id="soc-telegram" viewBox="0 0 36 32"><path fill="#fff" style="fill:var(--color1,#fff)" d="M2.444 13.776c9.544-4.516 15.909-7.493 19.093-8.932C30.629.737 32.519.024 33.75 0c.271-.005.876.068 1.269.413.331.292.422.686.466.963s.098.907.055 1.4c-.493 5.622-2.625 19.266-3.709 25.563-.459 2.665-1.363 3.558-2.237 3.645-1.901.19-3.345-1.365-5.186-2.676-2.882-2.051-4.509-3.328-7.306-5.33-3.232-2.313-1.137-3.585.705-5.663.482-.544 8.859-8.819 9.021-9.569.02-.094.039-.444-.152-.629s-.474-.122-.678-.071c-.289.071-4.892 3.376-13.81 9.913-1.307.974-2.49 1.449-3.55 1.424-1.169-.027-3.418-.718-5.089-1.308-2.05-.724-3.68-1.107-3.538-2.336.074-.64.886-1.295 2.436-1.964z"/></symbol><symbol id="soc-twitter" viewBox="0 0 36 32"><path fill="#fff" style="fill:var(--color1,#fff)" d="M35.998 3.799a13.824 13.824 0 0 1-4.242 1.27c1.543-1.009 2.698-2.597 3.25-4.468a14.021 14.021 0 0 1-4.691 1.96C29.203 1.261 27.73.398 26.124.108s-3.255.008-4.69.847c-1.435.84-2.577 2.175-3.246 3.797s-.831 3.441-.458 5.173c-2.937-.161-5.81-.995-8.433-2.449S4.361 3.982 2.506 1.487a8.647 8.647 0 0 0-1 4.06c0 2.8 1.303 5.273 3.285 6.721a6.885 6.885 0 0 1-3.345-1.01v.1c0 1.865.591 3.672 1.67 5.115s2.583 2.434 4.255 2.803a6.816 6.816 0 0 1-3.338.139c.471 1.605 1.39 3.009 2.627 4.014s2.731 1.563 4.273 1.595c-1.532 1.315-3.286 2.288-5.162 2.862s-3.837.738-5.771.482c3.376 2.374 7.306 3.634 11.321 3.63 13.587 0 21.017-12.305 21.017-22.977 0-.348-.009-.699-.023-1.043a15.872 15.872 0 0 0 3.686-4.18l-.002-.002z"/></symbol><symbol id="totop" viewBox="0 0 32 32"><path fill="#fff" style="fill:var(--color1,#fff)" opacity=".1" d="M16 0C7.163 0 0 7.163 0 16s7.163 16 16 16 16-7.163 16-16S24.837 0 16 0z"/><path fill="none" stroke="#fff" style="stroke:var(--color1,#fff)" stroke-width=".533" d="M16 .267C7.311.267.267 7.311.267 16S7.311 31.733 16 31.733 31.733 24.689 31.733 16 24.689.267 16 .267z"/><path fill="none" stroke="#fff" style="stroke:var(--color1,#fff)" stroke-width=".8" d="m16 10.667 2.667 2.391M16 10.667l-2.667 2.391M16 10.667v10.667"/></symbol><symbol id="wallet" viewBox="0 0 32 32"><path d="M23.467 9.6h4.053c.34 0 .665.137.905.382s.375.576.375.922V26.43c0 .346-.135.677-.375.922s-.566.382-.905.382H4.48c-.339 0-.665-.137-.905-.382s-.375-.576-.375-.922V5.571c0-.346.135-.677.375-.922s.566-.382.905-.382h18.987V9.6zM5.333 11.733V25.6h21.333V11.733H5.333zm0-5.333v3.2h16V6.4h-16zM19.2 17.067h4.267V19.2H19.2v-2.133z"/></symbol></defs></svg>