<svg aria-hidden="true" style="position: absolute; width: 0; height: 0; overflow: hidden;" version="1.1" xmlns="http://www.w3.org/2000/svg" xmlns:xlink="http://www.w3.org/1999/xlink">
<defs>
<symbol id="arrow-down" viewBox="0 0 32 32">
<path fill="#fff" style="fill: var(--color1, #fff)" d="M16 32c-8.837 0-16-7.163-16-16s7.163-16 16-16c8.837 0 16 7.163 16 16s-7.163 16-16 16z"></path>
<path fill="none" stroke="#363a45" style="stroke: var(--color2, #363a45)" stroke-linejoin="miter" stroke-linecap="butt" stroke-miterlimit="4" stroke-width="1.2" d="M16 19.2l4-3.586M16 19.2l-4-3.586M16 19.2v-8"></path>
</symbol>
<symbol id="location" viewBox="0 0 28 32">
<path fill="#d7ae9c" style="fill: var(--color3, #d7ae9c)" d="M20.183 17.277l-6.332 6.332-6.332-6.332c-1.621-1.621-2.623-3.859-2.623-6.332 0-4.946 4.009-8.955 8.955-8.955s8.955 4.009 8.955 8.955c0 2.473-1.002 4.712-2.623 6.332v0z"></path>
<path fill="none" stroke="#3b3633" style="stroke: var(--color4, #3b3633)" stroke-linejoin="miter" stroke-linecap="butt" stroke-miterlimit="4" stroke-width="0.4776" d="M13.849 15.164c2.33 0 4.219-1.889 4.219-4.219s-1.889-4.219-4.219-4.219v0c-2.33 0-4.219 1.889-4.219 4.219s1.889 4.219 4.219 4.219v0zM13.849 12.697c-0.967 0-1.751-0.784-1.751-1.751s0.784-1.751 1.751-1.751v0c0.967 0 1.751 0.784 1.751 1.751s-0.784 1.751-1.751 1.751v0z"></path>
</symbol>
<symbol id="logo" viewBox="0 0 98 32">
<path d="M20.377 0.615c-1.315-0.391-2.825-0.617-4.389-0.617-2.854 0-5.533 0.751-7.85 2.066l0.079-0.041c-3.673 2.054-6.403 5.426-7.572 9.46l-0.028 0.112c-0.392 1.311-0.618 2.818-0.618 4.378 0 2.848 0.753 5.519 2.070 7.827l-0.041-0.078c2.079 3.724 5.488 6.416 9.598 7.582 1.456 0.414 2.926 0.611 4.37 0.611 6.966 0 13.395-4.583 15.392-11.589 2.41-8.461-2.528-17.305-11.011-19.71zM28.793 19.591c-2.006 7.035-9.378 11.131-16.432 9.13-3.452-0.989-6.262-3.252-7.945-6.236l-0.034-0.066c-1.062-1.854-1.688-4.074-1.688-6.442 0-1.299 0.189-2.554 0.54-3.739l-0.024 0.093c0.995-3.448 3.264-6.251 6.252-7.925l0.067-0.034c1.862-1.059 4.091-1.683 6.466-1.683 1.299 0 2.555 0.187 3.742 0.535l-0.094-0.024c7.054 2.002 11.157 9.355 9.151 16.391zM83.121 0.135h-2.99l1.84 3.817-13.506 28.034 0.027 0.012h2.956l12.016-24.944 12.016 24.944h2.956l0.025-0.012-15.34-31.851zM52.162 18.592l-8.942-18.454h-2.989l10.435 21.556-4.96 10.293 0.027 0.012h2.956l15.349-31.865h-2.989l-8.888 18.457z"></path>
</symbol>
<symbol id="menu" viewBox="0 0 32 32">
<path d="M32 4h-32v4h32v-4zM26.667 22.667h-26.667v4h26.667v-4zM12 13.333h-12v4h12v-4z"></path>
</symbol>
<symbol id="menu-circles" viewBox="0 0 33 32">
<path fill="none" stroke="#fff" style="stroke: var(--color1, #fff)" stroke-linejoin="miter" stroke-linecap="butt" stroke-miterlimit="10" stroke-width="0.8276" d="M16.551 23.592c6.363 0 11.521-5.158 11.521-11.52s-5.159-11.52-11.521-11.52c-6.363 0-11.521 5.158-11.521 11.52s5.159 11.52 11.521 11.52z"></path>
<path fill="none" stroke="#fff" style="stroke: var(--color1, #fff)" stroke-linejoin="miter" stroke-linecap="butt" stroke-miterlimit="10" stroke-width="0.8276" d="M20.907 31.158c6.362 0 11.521-5.158 11.521-11.52s-5.158-11.52-11.521-11.52c-6.363 0-11.521 5.158-11.521 11.52s5.158 11.52 11.521 11.52z"></path>
<path fill="none" stroke="#fff" style="stroke: var(--color1, #fff)" stroke-linejoin="miter" stroke-linecap="butt" stroke-miterlimit="10" stroke-width="0.8276" d="M12.196 31.158c6.362 0 11.521-5.158 11.521-11.52s-5.158-11.52-11.521-11.52c-6.363 0-11.521 5.158-11.521 11.52s5.158 11.52 11.521 11.52z"></path>
</symbol>
<symbol id="menu-close" viewBox="0 0 32 32">
<path stroke-linejoin="miter" stroke-linecap="round" stroke-miterlimit="4" stroke-width="5.3333" d="M28.444 3.556l-24.889 24.889M3.556 3.556l24.889 24.889"></path>
</symbol>
<symbol id="mountaine1" viewBox="0 0 131 32">
<path d="M27.773 15.192l-27.728-15.192v31.962h135.238v-16.106l-7.721-4.234-12.037-3.819-9.962-0.664-11.291 7.057-3.072 1.66-8.385-4.732-16.77-8.634-7.472 3.819-16.272 4.815-14.528 4.068z"></path>
</symbol>
<symbol id="mountaine2" viewBox="0 0 148 32">
<path d="M31.762 2.783l-31.762 13.478v15.74h151.835v-31.95l-20.452 12.629-15.928 9.613-22.525-10.367-1.225 0.283-1.602 1.319-14.232 12.818-1.131-0.754-8.765-5.372-29.688-18.284h-1.602l-2.922 0.848z"></path>
</symbol>
<symbol id="paper" viewBox="0 0 32 32">
<path fill="#fff" style="fill: var(--color1, #fff)" d="M28 10.667v17.324c0.001 0.175-0.032 0.349-0.098 0.511s-0.163 0.31-0.286 0.435c-0.123 0.125-0.269 0.224-0.431 0.292s-0.335 0.104-0.51 0.105h-21.352c-0.351 0-0.687-0.139-0.936-0.387s-0.388-0.584-0.388-0.935v-24.021c0-0.716 0.599-1.323 1.336-1.323h14.66l8.004 8zM25.333 12h-6.667v-6.667h-12v21.333h18.667v-14.667z"></path>
</symbol>
<symbol id="play" viewBox="0 0 32 32">
<path fill="#d7ae9c" style="fill: var(--color3, #d7ae9c)" d="M16 29.333c-7.364 0-13.333-5.969-13.333-13.333s5.969-13.333 13.333-13.333c7.364 0 13.333 5.969 13.333 13.333s-5.969 13.333-13.333 13.333zM16 26.667c2.829 0 5.542-1.124 7.543-3.124s3.124-4.714 3.124-7.543c0-2.829-1.124-5.542-3.124-7.542s-4.714-3.124-7.543-3.124c-2.829 0-5.542 1.124-7.542 3.124s-3.124 4.713-3.124 7.542c0 2.829 1.124 5.542 3.124 7.543s4.713 3.124 7.542 3.124zM14.163 11.22l6.505 4.336c0.073 0.049 0.133 0.115 0.175 0.192s0.063 0.164 0.063 0.252c0 0.088-0.022 0.174-0.063 0.252s-0.101 0.143-0.175 0.192l-6.507 4.336c-0.080 0.053-0.173 0.084-0.269 0.088s-0.192-0.017-0.277-0.063c-0.085-0.045-0.156-0.113-0.205-0.195s-0.076-0.177-0.076-0.273v-8.675c0-0.096 0.027-0.191 0.076-0.274s0.121-0.15 0.206-0.196c0.085-0.045 0.181-0.067 0.277-0.062s0.19 0.036 0.27 0.089z"></path>
</symbol>
<symbol id="play-big" viewBox="0 0 32 32">
<path fill="#fff" style="fill: var(--color1, #fff)" opacity="0.6" d="M32 16c0 8.837-7.163 16-16 16s-16-7.163-16-16c0-8.837 7.163-16 16-16s16 7.163 16 16z"></path>
<path fill="#363a45" style="fill: var(--color2, #363a45)" d="M20.8 16l-7.2 4.157v-8.314l7.2 4.157z"></path>
</symbol>
<symbol id="soc-discord" viewBox="0 0 40 32">
<path fill="#fff" style="fill: var(--color1, #fff)" d="M26.166 27.889c-0.534 0.142-1.071 0.268-1.612 0.377-2.932 0.601-5.942 0.589-8.87-0.036-0.513-0.109-1.239-0.301-2.174-0.573l-3.066 4.343c-7.568-0.265-10.444-5.79-10.444-5.79 0-12.267 4.931-22.211 4.931-22.211 4.931-4.111 9.622-3.998 9.622-3.998l1.342 1.905c0.124-0.019 0.248-0.031 0.373-0.036 2.558-0.369 5.15-0.357 7.704 0.036l1.472-1.905c0 0 4.695-0.112 9.622 4.002 0 0 4.934 9.941 4.934 22.208 0 0-2.913 5.522-10.481 5.79l-3.353-4.111zM13.388 14.901c-2.001 0-3.582 1.633-3.582 3.628s1.615 3.628 3.582 3.628c1.998 0 3.579-1.633 3.579-3.628 0.033-1.995-1.578-3.628-3.579-3.628zM26.199 14.901c-1.998 0-3.579 1.633-3.579 3.628s1.615 3.628 3.579 3.628c2.001 0 3.583-1.633 3.583-3.628s-1.582-3.628-3.583-3.628z"></path>
</symbol>
<symbol id="soc-instagram" viewBox="0 0 32 32">
<path fill="#fff" style="fill: var(--color1, #fff)" d="M16.004 1.331c3.985 0 4.482 0.015 6.046 0.088 1.562 0.073 2.625 0.318 3.561 0.682 0.968 0.373 1.783 0.877 2.599 1.691 0.746 0.733 1.323 1.62 1.691 2.599 0.362 0.934 0.609 1.999 0.682 3.561 0.069 1.563 0.088 2.061 0.088 6.046s-0.015 4.482-0.088 6.046c-0.073 1.562-0.32 2.625-0.682 3.561-0.367 0.979-0.944 1.866-1.691 2.599-0.733 0.746-1.62 1.323-2.599 1.691-0.934 0.362-1.999 0.609-3.561 0.682-1.564 0.069-2.061 0.088-6.046 0.088s-4.482-0.015-6.046-0.088c-1.562-0.073-2.625-0.32-3.561-0.682-0.979-0.367-1.866-0.945-2.599-1.691-0.746-0.733-1.323-1.62-1.691-2.599-0.364-0.934-0.609-1.999-0.682-3.561-0.069-1.564-0.088-2.061-0.088-6.046s0.015-4.482 0.088-6.046c0.073-1.563 0.318-2.625 0.682-3.561 0.367-0.979 0.944-1.867 1.691-2.599 0.733-0.746 1.62-1.323 2.599-1.691 0.936-0.364 1.998-0.609 3.561-0.682 1.563-0.069 2.061-0.088 6.046-0.088zM16.004 8.665c-1.945 0-3.81 0.773-5.185 2.148s-2.148 3.241-2.148 5.185c0 1.945 0.773 3.81 2.148 5.185s3.241 2.148 5.185 2.148c1.945 0 3.81-0.773 5.185-2.148s2.148-3.24 2.148-5.185c0-1.945-0.772-3.81-2.148-5.185s-3.24-2.148-5.185-2.148zM25.537 8.298c0-0.486-0.193-0.953-0.537-1.296s-0.81-0.537-1.296-0.537c-0.486 0-0.952 0.193-1.296 0.537s-0.537 0.81-0.537 1.296c0 0.486 0.193 0.953 0.537 1.296s0.81 0.537 1.296 0.537c0.486 0 0.952-0.193 1.296-0.537s0.537-0.81 0.537-1.296zM16.004 11.598c1.167 0 2.286 0.464 3.111 1.289s1.289 1.944 1.289 3.111c0 1.167-0.464 2.286-1.289 3.111s-1.944 1.289-3.111 1.289c-1.167 0-2.286-0.464-3.111-1.289s-1.289-1.944-1.289-3.111c0-1.167 0.464-2.286 1.289-3.111s1.944-1.289 3.111-1.289z"></path>
</symbol>
<symbol id="soc-telegram" viewBox="0 0 36 32">
<path fill="#fff" style="fill: var(--color1, #fff)" d="M2.444 13.776c9.544-4.516 15.909-7.493 19.093-8.932 9.092-4.107 10.982-4.82 12.213-4.844 0.271-0.005 0.876 0.068 1.269 0.413 0.331 0.292 0.422 0.686 0.466 0.963s0.098 0.907 0.055 1.4c-0.493 5.622-2.625 19.266-3.709 25.563-0.459 2.665-1.363 3.558-2.237 3.645-1.901 0.19-3.345-1.365-5.186-2.676-2.882-2.051-4.509-3.328-7.306-5.33-3.232-2.313-1.137-3.585 0.705-5.663 0.482-0.544 8.859-8.819 9.021-9.569 0.020-0.094 0.039-0.444-0.152-0.629s-0.474-0.122-0.678-0.071c-0.289 0.071-4.892 3.376-13.81 9.913-1.307 0.974-2.49 1.449-3.55 1.424-1.169-0.027-3.418-0.718-5.089-1.308-2.050-0.724-3.68-1.107-3.538-2.336 0.074-0.64 0.886-1.295 2.436-1.964z"></path>
</symbol>
<symbol id="soc-twitter" viewBox="0 0 36 32">
<path fill="#fff" style="fill: var(--color1, #fff)" d="M35.998 3.799c-1.348 0.652-2.778 1.080-4.242 1.27 1.543-1.009 2.698-2.597 3.25-4.468-1.448 0.942-3.036 1.603-4.691 1.96-1.112-1.3-2.585-2.163-4.191-2.453s-3.255 0.008-4.69 0.847c-1.435 0.84-2.577 2.175-3.246 3.797s-0.831 3.441-0.458 5.173c-2.937-0.161-5.81-0.995-8.433-2.449s-4.936-3.494-6.791-5.989c-0.656 1.233-1.001 2.634-1 4.060 0 2.8 1.303 5.273 3.285 6.721-1.173-0.040-2.32-0.387-3.345-1.010v0.1c0 1.865 0.591 3.672 1.67 5.115s2.583 2.434 4.255 2.803c-1.089 0.323-2.23 0.37-3.338 0.139 0.471 1.605 1.39 3.009 2.627 4.014s2.731 1.563 4.273 1.595c-1.532 1.315-3.286 2.288-5.162 2.862s-3.837 0.738-5.771 0.482c3.376 2.374 7.306 3.634 11.321 3.63 13.587 0 21.017-12.305 21.017-22.977 0-0.348-0.009-0.699-0.023-1.043 1.446-1.143 2.694-2.558 3.686-4.18l-0.002-0.002z"></path>
</symbol>
<symbol id="totop" viewBox="0 0 32 32">
<path fill="#fff" style="fill: var(--color1, #fff)" opacity="0.1" d="M16 0c-8.837 0-16 7.163-16 16s7.163 16 16 16c8.837 0 16-7.163 16-16s-7.163-16-16-16z"></path>
<path fill="none" stroke="#fff" style="stroke: var(--color1, #fff)" stroke-linejoin="miter" stroke-linecap="butt" stroke-miterlimit="4" stroke-width="0.5333" d="M16 0.267c-8.689 0-15.733 7.044-15.733 15.733s7.044 15.733 15.733 15.733c8.689 0 15.733-7.044 15.733-15.733s-7.044-15.733-15.733-15.733z"></path>
<path fill="none" stroke="#fff" style="stroke: var(--color1, #fff)" stroke-linejoin="miter" stroke-linecap="butt" stroke-miterlimit="4" stroke-width="0.8" d="M16 10.667l2.667 2.391M16 10.667l-2.667 2.391M16 10.667v10.667"></path>
</symbol>
<symbol id="wallet" viewBox="0 0 32 32">
<path fill="#fff" style="fill: var(--color1, #fff)" d="M23.467 9.6h4.053c0.34 0 0.665 0.137 0.905 0.382s0.375 0.576 0.375 0.922v15.526c0 0.346-0.135 0.677-0.375 0.922s-0.566 0.382-0.905 0.382h-23.040c-0.339 0-0.665-0.137-0.905-0.382s-0.375-0.576-0.375-0.922v-20.859c0-0.346 0.135-0.677 0.375-0.922s0.566-0.382 0.905-0.382h18.987v5.333zM5.333 11.733v13.867h21.333v-13.867h-21.333zM5.333 6.4v3.2h16v-3.2h-16zM19.2 17.067h4.267v2.133h-4.267v-2.133z"></path>
</symbol>
</defs>
</svg>
