<svg xmlns="http://www.w3.org/2000/svg" fill="none" viewBox="0 0 120 39">
  <path fill="#fff" d="M24.834.75a19.408 19.408 0 0 0-14.819 1.716A19.318 19.318 0 0 0 .753 14.132a19.268 19.268 0 0 0 1.72 14.78c2.534 4.539 6.688 7.819 11.697 9.24 1.775.505 3.566.745 5.326.745 8.49 0 16.325-5.586 18.759-14.124 2.937-10.312-3.081-21.09-13.42-24.022Zm10.258 23.127c-2.445 8.574-11.43 13.566-20.027 11.127a16.089 16.089 0 0 1-9.725-7.681 16.01 16.01 0 0 1-1.428-12.294 16.062 16.062 0 0 1 7.701-9.7A16.16 16.16 0 0 1 23.94 3.901c8.597 2.44 13.598 11.401 11.153 19.976ZM101.304.164H97.66l2.242 4.652-16.461 34.166.033.014h3.603l14.645-30.401 14.645 30.401h3.603l.03-.014L101.304.164ZM63.572 22.659 52.674.168h-3.643L61.749 26.44l-6.045 12.544.033.015h3.603L78.047.164h-3.643L63.572 22.659Z"/>
</svg>
