<svg xmlns="http://www.w3.org/2000/svg" fill="none" viewBox="0 0 60 58">
  <path stroke="#fff" stroke-miterlimit="10" stroke-width="1.5" d="M29.999 42.76c11.533 0 20.882-9.348 20.882-20.88C50.88 10.348 41.53 1 29.999 1 18.466 1 9.117 10.348 9.117 21.88c0 11.532 9.35 20.88 20.882 20.88Z"/>
  <path stroke="#fff" stroke-miterlimit="10" stroke-width="1.5" d="M37.894 56.473c11.532 0 20.881-9.348 20.881-20.88 0-11.532-9.349-20.88-20.881-20.88-11.533 0-20.882 9.348-20.882 20.88 0 11.532 9.349 20.88 20.882 20.88Z"/>
  <path stroke="#fff" stroke-miterlimit="10" stroke-width="1.5" d="M22.105 56.473c11.532 0 20.881-9.348 20.881-20.88 0-11.532-9.349-20.88-20.881-20.88-11.533 0-20.882 9.348-20.882 20.88 0 11.532 9.349 20.88 20.882 20.88Z"/>
</svg>
