<svg width="20" height="20" viewBox="0 0 20 20" fill="none" xmlns="http://www.w3.org/2000/svg">
<path d="M10.0026 0.832031C12.4932 0.832031 12.8039 0.841198 13.7811 0.887031C14.7574 0.932865 15.4219 1.08595 16.0068 1.31328C16.6118 1.54611 17.1214 1.86145 17.6311 2.3702C18.0972 2.82844 18.4579 3.38274 18.688 3.99453C18.9144 4.57845 19.0684 5.24395 19.1143 6.2202C19.1574 7.19736 19.1693 7.50811 19.1693 9.9987C19.1693 12.4893 19.1601 12.8 19.1143 13.7772C19.0684 14.7534 18.9144 15.418 18.688 16.0029C18.4586 16.615 18.0978 17.1694 17.6311 17.6272C17.1727 18.0932 16.6185 18.4538 16.0068 18.6841C15.4229 18.9105 14.7574 19.0645 13.7811 19.1104C12.8039 19.1534 12.4932 19.1654 10.0026 19.1654C7.51202 19.1654 7.20127 19.1562 6.2241 19.1104C5.24785 19.0645 4.58327 18.9105 3.99844 18.6841C3.3864 18.4545 2.832 18.0937 2.3741 17.6272C1.90789 17.169 1.54721 16.6147 1.31719 16.0029C1.08985 15.4189 0.936771 14.7534 0.890937 13.7772C0.847854 12.8 0.835938 12.4893 0.835938 9.9987C0.835938 7.50811 0.845104 7.19736 0.890937 6.2202C0.936771 5.24303 1.08985 4.57936 1.31719 3.99453C1.54657 3.38236 1.90734 2.82791 2.3741 2.3702C2.83214 1.90383 3.3865 1.54312 3.99844 1.31328C4.58327 1.08595 5.24694 0.932865 6.2241 0.887031C7.20127 0.843948 7.51202 0.832031 10.0026 0.832031ZM10.0026 5.41536C8.78703 5.41536 7.62124 5.89825 6.7617 6.75779C5.90216 7.61733 5.41927 8.78312 5.41927 9.9987C5.41927 11.2143 5.90216 12.3801 6.7617 13.2396C7.62124 14.0991 8.78703 14.582 10.0026 14.582C11.2182 14.582 12.384 14.0991 13.2435 13.2396C14.1031 12.3801 14.5859 11.2143 14.5859 9.9987C14.5859 8.78312 14.1031 7.61733 13.2435 6.75779C12.384 5.89825 11.2182 5.41536 10.0026 5.41536ZM15.9609 5.1862C15.9609 4.8823 15.8402 4.59086 15.6253 4.37597C15.4104 4.16109 15.119 4.04036 14.8151 4.04036C14.5112 4.04036 14.2198 4.16109 14.0049 4.37597C13.79 4.59086 13.6693 4.8823 13.6693 5.1862C13.6693 5.49009 13.79 5.78154 14.0049 5.99642C14.2198 6.21131 14.5112 6.33203 14.8151 6.33203C15.119 6.33203 15.4104 6.21131 15.6253 5.99642C15.8402 5.78154 15.9609 5.49009 15.9609 5.1862ZM10.0026 7.2487C10.7319 7.2487 11.4314 7.53843 11.9471 8.05415C12.4629 8.56988 12.7526 9.26935 12.7526 9.9987C12.7526 10.728 12.4629 11.4275 11.9471 11.9432C11.4314 12.459 10.7319 12.7487 10.0026 12.7487C9.27326 12.7487 8.57379 12.459 8.05806 11.9432C7.54234 11.4275 7.2526 10.728 7.2526 9.9987C7.2526 9.26935 7.54234 8.56988 8.05806 8.05415C8.57379 7.53843 9.27326 7.2487 10.0026 7.2487Z" fill="white"/>
</svg>
