<svg width="18" height="16" viewBox="0 0 18 16" fill="none" xmlns="http://www.w3.org/2000/svg">
<path d="M17.9991 1.89937C17.325 2.22538 16.6101 2.43949 15.878 2.53461C16.6496 2.03012 17.2271 1.23616 17.5028 0.300674C16.7787 0.771788 15.9849 1.10195 15.1575 1.28055C14.6017 0.630434 13.865 0.199271 13.062 0.0540959C12.2589 -0.0910793 11.4345 0.0578671 10.7169 0.477779C9.99925 0.897691 9.42862 1.56504 9.0937 2.37608C8.75879 3.18712 8.67835 4.09641 8.86489 4.96259C7.39648 4.88212 5.95997 4.46495 4.6486 3.73814C3.33724 3.01133 2.18035 1.99113 1.25304 0.743792C0.924805 1.36015 0.752315 2.06082 0.753238 2.77403C0.753238 4.17386 1.40493 5.41053 2.3957 6.13458C1.80937 6.1144 1.23594 5.94129 0.723214 5.62968V5.67988C0.723391 6.61216 1.01848 7.5157 1.55844 8.23728C2.0984 8.95886 2.85001 9.45408 3.68583 9.63898C3.14154 9.80024 2.57082 9.82401 2.01688 9.70849C2.25253 10.511 2.71184 11.2128 3.33049 11.7157C3.94914 12.2185 4.69615 12.4973 5.46693 12.513C4.70088 13.1707 3.82374 13.657 2.88569 13.9439C1.94763 14.2308 0.967047 14.3127 0 14.185C1.68812 15.3719 3.65324 16.002 5.66032 16C12.4536 16 16.1686 9.84751 16.1686 4.51175C16.1686 4.33797 16.1641 4.16227 16.1571 3.99043C16.8802 3.41908 17.5043 2.71129 18 1.90034L17.9991 1.89937Z" fill="white"/>
</svg>
