<svg width="20" height="16" viewBox="0 0 20 16" fill="none" xmlns="http://www.w3.org/2000/svg">
<path d="M13.0831 13.9447C12.8161 14.0156 12.5475 14.0785 12.2773 14.1334C10.8114 14.434 9.30634 14.4279 7.84252 14.1152C7.58615 14.0608 7.22324 13.9646 6.75545 13.8286L5.22224 16C1.43832 15.8676 0 13.1048 0 13.1048C0 6.97151 2.46546 1.99922 2.46546 1.99922C4.93091 -0.0560844 7.27651 0.000151379 7.27651 0.000151379L7.9474 0.952523C8.00923 0.943079 8.07146 0.937024 8.13384 0.934383C9.41269 0.749661 10.7087 0.755764 11.986 0.952523L12.7218 0.000151379C12.7218 0.000151379 15.0691 -0.0560844 17.5329 2.00104C17.5329 2.00104 20 6.97151 20 13.1048C20 13.1048 18.5434 15.8658 14.7594 16L13.0831 13.9447ZM6.69386 7.45042C5.69336 7.45042 4.90261 8.26674 4.90261 9.26446C4.90261 10.2622 5.71001 11.0785 6.69386 11.0785C7.69269 11.0785 8.48344 10.2622 8.48344 9.26446C8.50008 8.26674 7.69436 7.45042 6.69386 7.45042ZM13.0997 7.45042C12.1009 7.45042 11.3101 8.26674 11.3101 9.26446C11.3101 10.2622 12.1175 11.0785 13.0997 11.0785C14.1002 11.0785 14.891 10.2622 14.891 9.26446C14.891 8.26674 14.1002 7.45042 13.0997 7.45042Z" fill="white"/>
</svg>
