<svg width="30" height="30" viewBox="0 0 30 30" fill="none" xmlns="http://www.w3.org/2000/svg">
<g clip-path="url(#clip0_801_1420)">
<path d="M22 9H25.8C26.1183 9 26.4235 9.12877 26.6485 9.35798C26.8736 9.58719 27 9.89807 27 10.2222V24.7778C27 25.1019 26.8736 25.4128 26.6485 25.642C26.4235 25.8712 26.1183 26 25.8 26H4.2C3.88174 26 3.57652 25.8712 3.35147 25.642C3.12643 25.4128 3 25.1019 3 24.7778V5.22222C3 4.89807 3.12643 4.58719 3.35147 4.35798C3.57652 4.12877 3.88174 4 4.2 4H22V9ZM5 11V24H25V11H5ZM5 6V9H20V6H5ZM18 16H22V18H18V16Z" fill="white"/>
</g>
<defs>
<clipPath id="clip0_801_1420">
<rect width="30" height="30" fill="white"/>
</clipPath>
</defs>
</svg>
