<svg width="1045" height="680" viewBox="0 0 1045 680" fill="none" xmlns="http://www.w3.org/2000/svg">
<path d="M1089.31 324.457C1139.96 375.155 1222.07 375.155 1272.71 324.457C1323.36 273.76 1323.36 191.562 1272.71 140.865C1222.07 90.1669 1139.96 90.1669 1089.31 140.865C1038.67 191.562 1038.67 273.759 1089.31 324.457Z" stroke="#656c7e60" stroke-width="2" stroke-miterlimit="10"/>
<path d="M1004.14 373.524C1054.79 424.221 1136.9 424.221 1187.54 373.524C1238.19 322.826 1238.19 240.629 1187.54 189.931C1136.9 139.233 1054.79 139.233 1004.14 189.931C953.497 240.629 953.497 322.826 1004.14 373.524Z" stroke="#656c7e60" stroke-width="2" stroke-miterlimit="10"/>
<path d="M1004.14 275.395C1054.79 326.092 1136.9 326.092 1187.54 275.395C1238.19 224.697 1238.19 142.5 1187.54 91.8021C1136.9 41.1045 1054.79 41.1045 1004.14 91.8022C953.497 142.5 953.497 224.697 1004.14 275.395Z" stroke="#656c7e60" stroke-width="2" stroke-miterlimit="10"/>
<path d="M1089.31 682.234C1139.96 732.932 1222.07 732.932 1272.71 682.235C1323.36 631.537 1323.36 549.34 1272.71 498.642C1222.07 447.944 1139.96 447.944 1089.31 498.642C1038.67 549.34 1038.67 631.537 1089.31 682.234Z" stroke="#656c7e60" stroke-width="2" stroke-miterlimit="10"/>
<path d="M1004.14 731.301C1054.78 781.999 1136.9 781.999 1187.54 731.301C1238.19 680.603 1238.19 598.406 1187.54 547.708C1136.9 497.011 1054.78 497.011 1004.14 547.708C953.493 598.406 953.493 680.603 1004.14 731.301Z" stroke="#656c7e60" stroke-width="2" stroke-miterlimit="10"/>
<path d="M1004.14 633.172C1054.79 683.87 1136.9 683.87 1187.54 633.172C1238.19 582.474 1238.19 500.277 1187.54 449.579C1136.9 398.882 1054.79 398.882 1004.14 449.58C953.497 500.277 953.497 582.474 1004.14 633.172Z" stroke="#656c7e60" stroke-width="2" stroke-miterlimit="10"/>
<path d="M116.924 590.45C116.924 662.148 174.987 720.27 246.611 720.271C318.234 720.271 376.297 662.148 376.297 590.45C376.297 518.752 318.234 460.629 246.611 460.629C174.987 460.629 116.924 518.752 116.924 590.45Z" stroke="#656c7e60" stroke-width="2" stroke-miterlimit="10"/>
<path d="M31.7523 639.512C31.7523 711.21 89.8149 769.333 161.439 769.333C233.062 769.333 291.125 711.21 291.125 639.512C291.125 567.814 233.062 509.691 161.439 509.691C89.8149 509.691 31.7523 567.814 31.7523 639.512Z" stroke="#656c7e60" stroke-width="2" stroke-miterlimit="10"/>
<path d="M31.7523 541.385C31.7523 613.083 89.8149 671.206 161.439 671.206C233.062 671.206 291.125 613.083 291.125 541.385C291.125 469.687 233.062 411.564 161.439 411.564C89.8149 411.564 31.7523 469.687 31.7523 541.385Z" stroke="#656c7e60" stroke-width="2" stroke-miterlimit="10"/>
<path d="M310.139 769.333C310.139 841.031 368.202 899.153 439.825 899.153C511.449 899.153 569.512 841.031 569.512 769.333C569.512 697.634 511.449 639.512 439.825 639.512C368.202 639.512 310.139 697.634 310.139 769.333Z" stroke="#656c7e60" stroke-width="2" stroke-miterlimit="10"/>
<path d="M395.311 720.27C395.311 791.968 453.373 850.091 524.997 850.091C596.621 850.091 654.684 791.968 654.684 720.27C654.684 648.572 596.621 590.449 524.997 590.449C453.373 590.449 395.311 648.572 395.311 720.27Z" stroke="#656c7e60" stroke-width="2" stroke-miterlimit="10"/>
<path d="M621.604 590.448C621.604 662.146 679.666 720.269 751.29 720.269C822.914 720.269 880.977 662.146 880.977 590.448C880.977 518.75 822.914 460.627 751.29 460.627C679.666 460.627 621.604 518.75 621.604 590.448Z" stroke="#656c7e60" stroke-width="2" stroke-miterlimit="10"/>
<path d="M744.768 633.166C795.413 683.864 877.525 683.864 928.17 633.166C978.815 582.468 978.815 500.271 928.17 449.574C877.525 398.876 795.413 398.876 744.768 449.574C694.122 500.271 694.122 582.468 744.768 633.166Z" stroke="#656c7e60" stroke-width="2" stroke-miterlimit="10"/>
<path d="M744.764 731.293C795.409 781.991 877.521 781.991 928.166 731.293C978.811 680.595 978.811 598.398 928.166 547.701C877.521 497.003 795.409 497.003 744.764 547.701C694.118 598.398 694.118 680.595 744.764 731.293Z" stroke="#656c7e60" stroke-width="2" stroke-miterlimit="10"/>
<path d="M621.604 232.666C621.604 304.365 679.666 362.487 751.29 362.487C822.914 362.487 880.977 304.365 880.977 232.666C880.977 160.968 822.914 102.846 751.29 102.846C679.666 102.846 621.604 160.968 621.604 232.666Z" stroke="#656c7e60" stroke-width="2" stroke-miterlimit="10"/>
<path d="M744.768 275.389C795.413 326.086 877.525 326.086 928.17 275.389C978.815 224.691 978.815 142.494 928.17 91.7963C877.525 41.0986 795.413 41.0986 744.768 91.7963C694.122 142.494 694.122 224.691 744.768 275.389Z" stroke="#656c7e60" stroke-width="2" stroke-miterlimit="10"/>
<path d="M744.768 373.516C795.413 424.213 877.525 424.213 928.17 373.516C978.815 322.818 978.815 240.621 928.17 189.923C877.525 139.226 795.413 139.226 744.768 189.923C694.122 240.621 694.122 322.818 744.768 373.516Z" stroke="#656c7e60" stroke-width="2" stroke-miterlimit="10"/>
<path d="M428.389 411.561C428.389 483.259 486.452 541.382 558.075 541.382C629.699 541.382 687.762 483.259 687.762 411.561C687.762 339.863 629.699 281.74 558.075 281.74C486.452 281.74 428.389 339.863 428.389 411.561Z" stroke="#656c7e60" stroke-width="2" stroke-miterlimit="10"/>
<path d="M343.217 460.627C343.217 532.325 401.28 590.448 472.904 590.448C544.527 590.448 602.59 532.325 602.59 460.627C602.59 388.929 544.527 330.807 472.904 330.807C401.28 330.807 343.217 388.929 343.217 460.627Z" stroke="#656c7e60" stroke-width="2" stroke-miterlimit="10"/>
<path d="M343.217 362.487C343.217 434.185 401.28 492.308 472.904 492.308C544.527 492.308 602.59 434.185 602.59 362.487C602.59 290.789 544.527 232.666 472.904 232.666C401.28 232.666 343.217 290.789 343.217 362.487Z" stroke="#656c7e60" stroke-width="2" stroke-miterlimit="10"/>
</svg>
